<?xml version="1.0" encoding="UTF-8" standalone="no"?>
<!-- Created with Inkscape (http://www.inkscape.org/) -->

<svg
   xmlns:dc="http://purl.org/dc/elements/1.1/"
   xmlns:cc="http://creativecommons.org/ns#"
   xmlns:rdf="http://www.w3.org/1999/02/22-rdf-syntax-ns#"
   xmlns:svg="http://www.w3.org/2000/svg"
   xmlns="http://www.w3.org/2000/svg"
   xmlns:xlink="http://www.w3.org/1999/xlink"
   xmlns:sodipodi="http://sodipodi.sourceforge.net/DTD/sodipodi-0.dtd"
   xmlns:inkscape="http://www.inkscape.org/namespaces/inkscape"
   width="357"
   height="282"
   id="svg2"
   version="1.1"
   inkscape:version="0.47 r22583">
  <g
     inkscape:label="Layer 1"
     inkscape:groupmode="layer"
     id="layer1"
     transform="translate(-549.81522,-375.1147)">
    <path
       style="fill:#ffffff;fill-rule:nonzero;stroke:none"
       d="m 903.74625,615.1954 c 0,21.36653 -17.50706,38.85035 -38.87359,38.85035 l -273.11488,0 c -21.36653,0 -38.8736,-17.48382 -38.8736,-38.85035 l 0,-198.15767 c 0,-21.36652 17.50707,-38.85034 38.8736,-38.85034 l 273.11488,0 c 21.36653,0 38.87359,17.48382 38.87359,38.85034 l 0,198.15767"
       id="path44333-4" />
    <path
       style="fill:#0075bf;fill-rule:nonzero;stroke:none"
       d="m 889.7034,612.89368 c 0,15.06584 -12.32237,27.38821 -27.38821,27.38821 l -267.99994,0 c -15.06584,0 -27.38821,-12.32237 -27.38821,-27.38821 l 0,-193.55422 c 0,-15.06584 12.32237,-27.38821 27.38821,-27.38821 l 267.99994,0 c 15.06584,0 27.38821,12.32237 27.38821,27.38821 l 0,193.55422"
       id="path44335-5" />
    <path
       style="fill:#0075bf;fill-rule:nonzero;stroke:none"
       d="m 591.75778,375.11842 c -23.11026,0 -41.94256,18.80906 -41.94256,41.91931 l 0,198.15767 c 0,23.11026 18.8323,41.91931 41.94256,41.91931 l 273.11488,0 c 23.11026,0 41.94256,-18.80905 41.94256,-41.91931 l 0,-198.15767 c 0,-23.11025 -18.8323,-41.91931 -41.94256,-41.91931 l -273.11488,0 z m -25.27249,265.34947 c -6.78893,-6.78893 -10.53214,-15.76334 -10.53214,-25.27249 l 0,-198.15767 c 0,-9.50915 3.74321,-18.48355 10.53214,-25.27248 6.78893,-6.78893 15.76334,-10.50889 25.27249,-10.50889 l 273.11488,0 c 9.50915,0 18.48356,3.71996 25.27249,10.50889 6.78892,6.78893 10.53213,15.76333 10.53213,25.27248 l 0,198.15767 c 0,9.50915 -3.74321,18.48356 -10.53213,25.27249 -6.78893,6.76568 -15.76334,10.50889 -25.27249,10.50889 l -273.11488,0 c -9.50915,0 -18.48356,-3.74321 -25.27249,-10.50889"
       id="path44337-5" />
    <path
       style="fill:#ffffff;fill-rule:nonzero;stroke:none"
       d="m 839.41418,551.97932 0,56.8689 27.52771,0 0,-12.97336 -14.3451,0 0,-43.89554 -13.18261,0"
       id="path44341-7" />
    <path
       style="fill:#ffffff;fill-rule:nonzero;stroke:none"
       d="m 753.08783,472.32565 0,-56.8689 27.10922,0 0,12.41537 -13.9266,0 0,9.0209 13.6011,0 0,12.48512 -13.6011,0 0,10.39264 13.9266,0 0,12.55487 -27.10922,0"
       id="path44343-1" />
    <path
       style="fill:#ffffff;fill-rule:nonzero;stroke:none"
       d="m 755.06406,540.58694 0,-56.79916 13.18261,0 0,20.94803 9.16041,0 0,-20.94803 13.18261,0 0,56.79916 -13.18261,0 0,-22.45927 -9.16041,0 0,22.45927 -13.18261,0"
       id="path44345-1" />
    <path
       style="fill:#ffffff;fill-rule:nonzero;stroke:none"
       d="m 798.37836,540.58694 0,-56.79916 27.17896,0 0,12.41537 -13.9266,0 0,8.95116 13.50811,0 0,12.48512 -13.50811,0 0,10.46239 13.9266,0 0,12.48512 -27.17896,0"
       id="path44347-5" />
    <path
       style="fill:#ffffff;fill-rule:nonzero;stroke:none"
       d="m 760.27201,608.84822 0,-56.8689 12.76411,0 12.43862,29.96893 c 0,-9.97414 0,-19.99479 0,-29.96893 l 11.99688,0 0,56.8689 -12.76412,0 -12.41537,-29.43419 c 0,9.7649 0,19.73904 0,29.43419 l -12.02012,0"
       id="path44349-2" />
    <path
       style="fill:#ffffff;fill-rule:nonzero;stroke:none"
       d="m 804.98129,608.84822 0,-56.8689 27.20221,0 0,12.50837 -14.0196,0 0,8.99765 13.60111,0 0,12.43862 -13.60111,0 0,10.43914 14.0196,0 0,12.48512 -27.20221,0"
       id="path44351-7" />
    <path
       style="fill:#ffffff;fill-rule:nonzero;stroke:none"
       d="m 709.93629,415.45675 0,56.8689 13.18261,0 0,-22.45926 9.13715,0 0,22.45926 13.18261,0 0,-56.8689 -13.18261,0 0,20.94803 -9.13715,0 0,-20.94803 -13.18261,0"
       id="path44353-6" />
    <path
       style="fill:#ffffff;fill-rule:nonzero;stroke:none"
       d="m 718.67819,496.6914 0,-12.90362 33.17741,0 0,12.90362 -9.9509,0 0,43.89554 -13.18261,0 0,-43.89554 -10.0439,0"
       id="path44355-1" />
    <path
       style="fill:#ffffff;fill-rule:nonzero;stroke:none"
       d="m 715.53948,551.97932 0,56.8689 12.02012,0 c 0,-9.69515 0,-19.66929 0,-29.43419 l 12.34562,29.43419 12.76412,0 0,-56.8689 -11.92713,0 c 0,9.97414 0,19.99479 0,29.96893 l -12.43862,-29.96893 -12.76411,0"
       id="path44357-4" />
    <path
       style="fill:#ffffff;fill-rule:nonzero;stroke:none"
       d="m 683.57106,472.32565 0,-43.89554 -10.04389,0 0,-12.97336 33.20065,0 0,12.97336 -9.97415,0 0,43.89554 -13.18261,0"
       id="path44359-2" />
    <path
       style="fill:#ffffff;fill-rule:nonzero;stroke:none"
       d="m 709.51779,483.78778 -14.74034,0 -13.99636,56.79916 13.99636,0 1.58098,-8.53266 10.78789,0 1.55773,8.53266 13.60111,0 -12.78737,-56.79916 z m -10.71814,35.29313 2.99922,-16.46083 0.1395,-0.39524 2.81322,16.85607 -5.95194,0"
       id="path44361-3" />
    <path
       style="fill:#ffffff;fill-rule:nonzero;stroke:none"
       d="m 601.68542,540.58694 -12.02012,-56.79916 13.18261,0 5.25445,34.20039 5.60319,-31.80566 11.13663,0 5.1847,31.80566 5.18469,-34.20039 13.18261,0 -11.53188,56.79916 -12.83386,0 -5.11495,-32.71241 -4.78945,32.71241 -12.43862,0"
       id="path44363-2" />
    <path
       style="fill:#ffffff;fill-rule:nonzero;stroke:none"
       d="m 652.02114,540.58694 0,-56.79916 27.17897,0 0,12.41537 -13.99635,0 0,8.95116 13.6011,0 0,12.48512 -13.6011,0 0,10.46239 13.99635,0 0,12.48512 -27.17897,0"
       id="path44365-2" />
    <path
       style="fill:#ffffff;fill-rule:nonzero;stroke:none"
       d="m 626.49291,593.41038 0,13.46161 c -2.53422,1.62748 -8.60241,2.92947 -11.55513,2.92947 -14.74034,0 -19.99479,-16.11208 -19.99479,-28.3182 0,-13.04312 5.0452,-30.99193 21.15728,-30.99193 4.51045,0 6.76568,0.67424 10.39264,3.06897 l 0,12.90361 c -11.95037,-6.97492 -17.97206,3.60372 -17.97206,13.99636 0,10.09039 6.90518,20.18079 17.97206,12.95011"
       id="path44367-1" />
    <path
       style="fill:#ffffff;fill-rule:nonzero;stroke:none"
       d="m 633.30509,608.84822 0,-56.8689 13.18261,0 0,20.94803 9.16041,0 0,-20.94803 13.18261,0 0,56.8689 -13.18261,0 0,-22.38952 -9.16041,0 0,22.38952 -13.18261,0"
       id="path44369-6" />
    <path
       style="fill:#ffffff;fill-rule:nonzero;stroke:none"
       d="m 857.31649,513.61722 c 5.51019,-1.09274 7.23067,-8.18392 7.23067,-12.97336 0,-9.55565 -5.53344,-16.64683 -15.36808,-16.78633 -0.0697,0 -0.20925,-0.0697 -0.279,-0.0697 l -16.29808,0 0,56.79916 13.15936,0 0,-23.01726 6.76568,23.01726 13.99635,0 -9.2069,-26.96972 z m -8.13741,-5.3242 c -0.95324,0.6045 -2.11573,0.8835 -3.41772,0.8835 l 0,-14.46135 c 1.37174,0 2.51097,0.34874 3.41772,0.81374 2.25522,1.16249 3.34796,3.55721 3.34796,6.34718 0,2.92947 -1.37174,5.1382 -3.34796,6.41693"
       id="path44371-8" />
    <path
       style="fill:#ffffff;fill-rule:nonzero;stroke:none"
       d="m 699.61339,551.97932 -14.81009,0 -13.99635,56.8689 13.99635,0 1.62748,-8.46291 10.74139,0 1.62748,8.46291 13.60111,0 -12.78737,-56.8689 z m -10.85763,35.43262 3.09222,-16.18183 0.18599,-0.74399 2.74348,16.92582 -6.02169,0"
       id="path44373-5" />
  </g>
</svg>
